<svg width="16" height="16" viewBox="0 0 16 16" fill="none" xmlns="http://www.w3.org/2000/svg">
<path d="M14.5028 6.49248C14.4424 6.24593 14.2615 6.12265 14.0202 6.06102L10.1594 5.50628L8.41003 1.93132C8.22906 1.49986 7.50518 1.49986 7.3242 1.93132L5.57481 5.44464L1.7744 6.06102C1.5331 6.06102 1.35213 6.24593 1.23148 6.49248C1.17116 6.73903 1.23148 6.98558 1.41246 7.10885L4.18736 9.88253L3.52379 13.8273C3.46347 14.0739 3.58412 14.3204 3.76509 14.4437C3.94606 14.567 4.18736 14.6286 4.42865 14.5053L7.86712 12.6562L11.3056 14.5053C11.4262 14.5053 11.4866 14.5053 11.6072 14.5053C11.7279 14.5053 11.8485 14.4437 11.9691 14.382C12.1501 14.2588 12.2708 14.0122 12.2104 13.7657L11.5469 9.82089L14.3218 7.04721C14.5028 6.92394 14.5631 6.67739 14.5028 6.49248Z" fill="black"/>
<mask id="mask0_2_319" style="mask-type:luminance" maskUnits="userSpaceOnUse" x="1" y="1" width="14" height="14">
<path d="M14.5028 6.49248C14.4424 6.24593 14.2615 6.12265 14.0202 6.06102L10.1594 5.50628L8.41003 1.93132C8.22906 1.49986 7.50518 1.49986 7.3242 1.93132L5.57481 5.44464L1.7744 6.06102C1.5331 6.06102 1.35213 6.24593 1.23148 6.49248C1.17116 6.73903 1.23148 6.98558 1.41246 7.10885L4.18736 9.88253L3.52379 13.8273C3.46347 14.0739 3.58412 14.3204 3.76509 14.4437C3.94606 14.567 4.18736 14.6286 4.42865 14.5053L7.86712 12.6562L11.3056 14.5053C11.4262 14.5053 11.4866 14.5053 11.6072 14.5053C11.7279 14.5053 11.8485 14.4437 11.9691 14.382C12.1501 14.2588 12.2708 14.0122 12.2104 13.7657L11.5469 9.82089L14.3218 7.04721C14.5028 6.92394 14.5631 6.67739 14.5028 6.49248Z" fill="white"/>
</mask>
<g mask="url(#mask0_2_319)">
<rect x="0.604492" y="0.990936" width="14.5271" height="14.8169" fill="#FF9F43"/>
</g>
</svg>
