<svg width="21" height="21" viewBox="0 0 21 21" fill="none" xmlns="http://www.w3.org/2000/svg">
<path fill-rule="evenodd" clip-rule="evenodd" d="M10.1302 2.53253C16.4748 2.53253 20.0277 9.45482 20.1969 9.79249C20.2815 9.96133 20.2815 10.299 20.1969 10.4678C20.0277 10.8055 16.4748 17.7278 10.1302 17.7278C4.15833 17.7278 0.659722 11.5949 0.128178 10.6632C0.0950027 10.605 0.0733851 10.5671 0.0634458 10.5523C-0.0211486 10.299 -0.0211486 10.0457 0.0634458 9.79249C0.232635 9.45482 3.7856 2.53253 10.1302 2.53253ZM1.75535 10.13C2.60129 11.4807 5.56209 16.0393 10.1302 16.0393C14.6983 16.0393 17.6591 11.4807 18.505 10.13C17.6591 8.7793 14.6983 4.22072 10.1302 4.22072C5.56209 4.22072 2.51669 8.7793 1.75535 10.13ZM10.1302 6.75327C8.26914 6.75327 6.74644 8.2728 6.74644 10.13C6.74644 11.9872 8.26914 13.5067 10.1302 13.5067C11.9913 13.5067 13.514 11.9872 13.514 10.13C13.514 8.2728 11.9913 6.75327 10.1302 6.75327ZM8.43831 10.13C8.43831 11.0586 9.19966 11.8184 10.1302 11.8184C11.0607 11.8184 11.8221 11.0586 11.8221 10.13C11.8221 9.2014 11.0607 8.44163 10.1302 8.44163C9.19966 8.44163 8.43831 9.2014 8.43831 10.13Z" fill="black"/>
<mask id="mask0_2_303" style="mask-type:luminance" maskUnits="userSpaceOnUse" x="0" y="2" width="21" height="16">
<path fill-rule="evenodd" clip-rule="evenodd" d="M10.1302 2.53253C16.4748 2.53253 20.0277 9.45482 20.1969 9.79249C20.2815 9.96133 20.2815 10.299 20.1969 10.4678C20.0277 10.8055 16.4748 17.7278 10.1302 17.7278C4.15833 17.7278 0.659722 11.5949 0.128178 10.6632C0.0950027 10.605 0.0733851 10.5671 0.0634458 10.5523C-0.0211486 10.299 -0.0211486 10.0457 0.0634458 9.79249C0.232635 9.45482 3.7856 2.53253 10.1302 2.53253ZM1.75535 10.13C2.60129 11.4807 5.56209 16.0393 10.1302 16.0393C14.6983 16.0393 17.6591 11.4807 18.505 10.13C17.6591 8.7793 14.6983 4.22072 10.1302 4.22072C5.56209 4.22072 2.51669 8.7793 1.75535 10.13ZM10.1302 6.75327C8.26914 6.75327 6.74644 8.2728 6.74644 10.13C6.74644 11.9872 8.26914 13.5067 10.1302 13.5067C11.9913 13.5067 13.514 11.9872 13.514 10.13C13.514 8.2728 11.9913 6.75327 10.1302 6.75327ZM8.43831 10.13C8.43831 11.0586 9.19966 11.8184 10.1302 11.8184C11.0607 11.8184 11.8221 11.0586 11.8221 10.13C11.8221 9.2014 11.0607 8.44163 10.1302 8.44163C9.19966 8.44163 8.43831 9.2014 8.43831 10.13Z" fill="white"/>
</mask>
<g mask="url(#mask0_2_303)">
<rect y="-1.52588e-05" width="20.2604" height="20.2604" fill="white"/>
</g>
</svg>
